<svg width="180" height="180" viewBox="0 0 13 13" fill="none" xmlns="http://www.w3.org/2000/svg">
<g clip-path="url(#clip0_589_2331)">
<path d="M0 1.99371V11.0098C0 12.1115 0.892017 13.0036 1.99371 13.0036H11.0098C12.1115 13.0036 13.0036 12.1115 13.0036 11.0098V0H1.99371C0.892017 0 0 0.892017 0 1.99371Z" fill="#FFFF08"/>
<path d="M6.30454 6.69549H4.84035V5.2313L2.36687 2.75782C2.19983 2.59079 1.91197 2.70807 1.91197 2.94618V7.79363C1.91197 8.02819 2.00437 8.25563 2.1714 8.42267L3.37616 9.62742L4.58092 10.8322C4.74795 10.9992 4.97539 11.0916 5.20995 11.0916H10.0574C10.2955 11.0916 10.4128 10.8073 10.2458 10.6367L7.77228 8.16323H6.30809V6.69905L6.30454 6.69549Z" fill="#0B1215"/>
<path d="M5.23127 4.8439L2.75779 2.37042C2.59076 2.20339 2.70804 1.91553 2.94615 1.91553H8.15965L11.088 4.8439V10.0574C11.088 10.2955 10.8037 10.4128 10.6331 10.2458L8.15965 7.77228V4.8439H5.23127Z" fill="#0B1215"/>
</g>
<defs>
<clipPath id="clip0_589_2331">
<rect width="13" height="13" fill="white"/>
</clipPath>
</defs>
</svg>